<?xml version="1.0" encoding="UTF-8"?><svg id="Layer_2" xmlns="http://www.w3.org/2000/svg" viewBox="0 0 872.38 258.89"><defs><style>.cls-1{fill:#eefc00;}</style></defs><g id="Layer_1-2"><path class="cls-1" d="M332.73,201.23l61.67-167.97h37.91l61.67,167.97h-31.43l-48.95-137.01h-1.2l-48.71,137.01h-30.95ZM361.28,162.6l8.88-27.59h86.38l8.64,27.59h-103.9Z"/><path class="cls-1" d="M484.38,103.33v-24.48h85.18v24.48h-85.18ZM550.13,201.23c-8.48,0-15.68-1.48-21.6-4.44-5.92-2.96-10.4-7.4-13.44-13.32-3.04-5.92-4.56-13.2-4.56-21.84V48.38h28.07v112.54c0,5.28,1.24,9.16,3.72,11.64,2.48,2.48,6.28,3.72,11.4,3.72h22.79v24.96h-26.39Z"/><path class="cls-1" d="M591.16,201.23V33.26h27.83v167.97h-27.83Z"/><path class="cls-1" d="M679.22,203.63c-8.32,0-15.76-1.64-22.32-4.92-6.56-3.28-11.68-7.8-15.36-13.56-3.68-5.76-5.52-12.32-5.52-19.68s1.8-13.32,5.4-18.84c3.6-5.52,8.88-9.88,15.84-13.08,6.96-3.2,15.39-4.8,25.32-4.8h50.39v20.88h-47.27c-7.04,0-12.24,1.32-15.6,3.96-3.36,2.64-5.04,6.28-5.04,10.92s1.76,8.08,5.28,10.8c3.52,2.72,9.04,4.08,16.56,4.08,6.56,0,12.44-1.4,17.64-4.2,5.2-2.8,9.28-6.72,12.24-11.76,2.96-5.04,4.44-10.84,4.44-17.4v-22.08c0-7.84-2.32-13.8-6.96-17.88-4.64-4.08-10.88-6.12-18.72-6.12-6.88,0-12.56,1.52-17.04,4.56-4.48,3.04-7.28,7.28-8.4,12.72h-29.03c.8-8.32,3.6-15.6,8.4-21.84s11.2-11.04,19.2-14.4c8-3.36,16.95-5.04,26.87-5.04,11.52,0,21.27,2.04,29.27,6.12,8,4.08,14.04,9.8,18.12,17.16,4.08,7.36,6.12,16,6.12,25.91v76.06h-26.39v-18h-1.2c-3.68,6.08-9.4,11-17.16,14.76-7.76,3.76-16.12,5.64-25.08,5.64Z"/><path class="cls-1" d="M817.91,203.63c-11.04,0-20.76-1.68-29.15-5.04s-15-8.12-19.8-14.28c-4.8-6.16-7.28-13.4-7.44-21.72h28.55c.8,5.44,3.52,9.6,8.16,12.48,4.64,2.88,11.12,4.32,19.44,4.32s14.67-1.16,19.08-3.48c4.4-2.32,6.6-5.64,6.6-9.96,0-2.88-1.2-5.28-3.6-7.2-2.4-1.92-5.48-3.4-9.24-4.44-3.76-1.04-8.92-2.28-15.48-3.72-10.24-2.24-18.6-4.52-25.08-6.84-6.48-2.32-12.12-6.08-16.92-11.28-4.8-5.2-7.2-12.12-7.2-20.76,0-6.88,2.08-13,6.24-18.36,4.16-5.36,10.08-9.6,17.76-12.72,7.68-3.12,16.56-4.68,26.63-4.68s18.99,1.68,27.24,5.04c8.24,3.36,14.72,8.04,19.44,14.04,4.72,6,7,12.6,6.84,19.8h-28.55c-.64-5.12-3-8.8-7.08-11.04-4.08-2.24-10.04-3.36-17.88-3.36-7.04,0-12.4,1.08-16.08,3.24-3.68,2.16-5.52,5.24-5.52,9.24,0,2.88,1.2,5.2,3.6,6.96,2.4,1.76,5.44,3.16,9.12,4.2,3.68,1.04,8.8,2.2,15.36,3.48,10.4,2.08,18.84,4.28,25.31,6.6,6.48,2.32,12.12,6.04,16.92,11.16,4.8,5.12,7.2,12.08,7.2,20.88,0,7.36-2.16,13.88-6.48,19.56-4.32,5.68-10.6,10.08-18.84,13.2-8.24,3.12-17.96,4.68-29.15,4.68Z"/><rect class="cls-1" width="45.58" height="45.58" rx="12.66" ry="12.66"/><rect class="cls-1" x="133.46" y="79.58" width="45.58" height="45.58" rx="12.66" ry="12.66"/><rect class="cls-1" x="133.46" y="133.18" width="45.58" height="45.58" rx="12.66" ry="12.66"/><rect class="cls-1" x="213.31" y="213.31" width="45.58" height="45.58" rx="12.66" ry="12.66"/><rect class="cls-1" x="213.31" width="45.58" height="45.58" rx="12.66" ry="12.66"/><rect class="cls-1" x="79.86" y="79.58" width="45.58" height="45.58" rx="12.66" ry="12.66"/><rect class="cls-1" y="213.31" width="45.58" height="45.58" rx="12.66" ry="12.66"/><rect class="cls-1" x="79.86" y="133.18" width="45.58" height="45.58" rx="12.66" ry="12.66"/></g></svg>